<mxfile host="65bd71144e">
    <diagram id="tr8WCDj-hul7nBdrf4UF" name="Страница 1">
        <mxGraphModel dx="713" dy="718" grid="1" gridSize="10" guides="1" tooltips="1" connect="0" arrows="1" fold="1" page="1" pageScale="1" pageWidth="827" pageHeight="1169" math="0" shadow="0">
            <root>
                <mxCell id="0"/>
                <mxCell id="1" parent="0"/>
                <mxCell id="2" style="edgeStyle=orthogonalEdgeStyle;rounded=0;orthogonalLoop=1;jettySize=auto;html=1;" parent="1" source="3" edge="1">
                    <mxGeometry relative="1" as="geometry">
                        <mxPoint x="375" y="150" as="targetPoint"/>
                    </mxGeometry>
                </mxCell>
                <mxCell id="3" value="Запуск" style="rounded=1;whiteSpace=wrap;html=1;arcSize=50;" parent="1" vertex="1">
                    <mxGeometry x="305" y="20" width="140" height="40" as="geometry"/>
                </mxCell>
                <mxCell id="5" value="#include &amp;lt;iostream&amp;gt;&lt;br&gt;#include &amp;lt;complex&amp;gt;&lt;br&gt;using namespace std;&lt;br&gt;setlocale(LC_ALL, &quot;Russian&quot;);" style="strokeWidth=2;html=1;shape=mxgraph.flowchart.annotation_2;align=left;labelPosition=right;pointerEvents=1;" parent="1" vertex="1">
                    <mxGeometry x="458.01" y="40" width="20" height="80" as="geometry"/>
                </mxCell>
                <mxCell id="6" value="" style="endArrow=none;dashed=1;html=1;entryX=0;entryY=0.5;entryDx=0;entryDy=0;entryPerimeter=0;" parent="1" target="5" edge="1">
                    <mxGeometry width="50" height="50" relative="1" as="geometry">
                        <mxPoint x="375" y="80" as="sourcePoint"/>
                        <mxPoint x="465" y="70" as="targetPoint"/>
                    </mxGeometry>
                </mxCell>
                <mxCell id="7" value="Конец" style="rounded=1;whiteSpace=wrap;html=1;arcSize=50;" parent="1" vertex="1">
                    <mxGeometry x="305" y="450" width="140" height="40" as="geometry"/>
                </mxCell>
                <mxCell id="10" value="return 0;&lt;br&gt;}" style="strokeWidth=2;html=1;shape=mxgraph.flowchart.annotation_2;align=left;labelPosition=right;pointerEvents=1;" parent="1" vertex="1">
                    <mxGeometry x="476.75" y="400" width="20" height="60" as="geometry"/>
                </mxCell>
                <mxCell id="11" value="" style="endArrow=none;dashed=1;html=1;entryX=0;entryY=0.5;entryDx=0;entryDy=0;entryPerimeter=0;" parent="1" edge="1">
                    <mxGeometry width="50" height="50" relative="1" as="geometry">
                        <mxPoint x="376.75" y="430" as="sourcePoint"/>
                        <mxPoint x="476.75" y="430" as="targetPoint"/>
                    </mxGeometry>
                </mxCell>
                <mxCell id="307" style="edgeStyle=orthogonalEdgeStyle;rounded=0;html=1;strokeColor=#f0f0f0;" parent="1" target="7" edge="1">
                    <mxGeometry relative="1" as="geometry">
                        <mxPoint x="375.04999999999995" y="380" as="sourcePoint"/>
                    </mxGeometry>
                </mxCell>
                <mxCell id="356" style="edgeStyle=none;html=1;rounded=0;" edge="1" parent="1" source="354" target="355">
                    <mxGeometry relative="1" as="geometry"/>
                </mxCell>
                <mxCell id="354" value="int main() {" style="ellipse;whiteSpace=wrap;html=1;" vertex="1" parent="1">
                    <mxGeometry x="315" y="150" width="120" height="60" as="geometry"/>
                </mxCell>
                <mxCell id="358" value="" style="edgeStyle=orthogonalEdgeStyle;rounded=0;html=1;" edge="1" parent="1" source="355" target="357">
                    <mxGeometry relative="1" as="geometry"/>
                </mxCell>
                <mxCell id="355" value="cout &amp;lt;&amp;lt; &quot;Сумма комплескных чисел равна: &quot; &amp;lt;&amp;lt; summa(complex&amp;lt;double&amp;gt;(4, 6), complex&amp;lt;double&amp;gt;(3, 5)) &amp;lt;&amp;lt; endl;" style="shape=parallelogram;perimeter=parallelogramPerimeter;whiteSpace=wrap;html=1;fixedSize=1;" vertex="1" parent="1">
                    <mxGeometry x="188.38" y="270" width="373.25" height="40" as="geometry"/>
                </mxCell>
                <mxCell id="357" value="&lt;div&gt;&lt;span&gt;&#9;&lt;/span&gt;cout &amp;lt;&amp;lt; &quot;Сумма вещественных чисел равна: &quot; &amp;lt;&amp;lt; summa(983.4, 746.98);&lt;/div&gt;" style="shape=parallelogram;perimeter=parallelogramPerimeter;whiteSpace=wrap;html=1;fixedSize=1;" vertex="1" parent="1">
                    <mxGeometry x="214.19" y="340" width="321.62" height="40" as="geometry"/>
                </mxCell>
                <mxCell id="362" style="edgeStyle=orthogonalEdgeStyle;rounded=0;html=1;" edge="1" parent="1" source="359" target="361">
                    <mxGeometry relative="1" as="geometry"/>
                </mxCell>
                <mxCell id="359" value="&lt;div&gt;float summa(float a, float b) {&lt;/div&gt;" style="ellipse;whiteSpace=wrap;html=1;" vertex="1" parent="1">
                    <mxGeometry x="700" y="150" width="120" height="60" as="geometry"/>
                </mxCell>
                <mxCell id="364" style="edgeStyle=orthogonalEdgeStyle;rounded=0;html=1;" edge="1" parent="1" source="360" target="363">
                    <mxGeometry relative="1" as="geometry"/>
                </mxCell>
                <mxCell id="360" value="&lt;div&gt;complex&amp;lt;double&amp;gt;summa(complex&amp;lt;double&amp;gt;a, complex&amp;lt;double&amp;gt;b)&lt;/div&gt;" style="ellipse;whiteSpace=wrap;html=1;" vertex="1" parent="1">
                    <mxGeometry x="930" y="145" width="270" height="70" as="geometry"/>
                </mxCell>
                <mxCell id="361" value="&lt;div&gt;return a + b;&lt;/div&gt;&lt;div&gt;}&lt;/div&gt;" style="ellipse;whiteSpace=wrap;html=1;" vertex="1" parent="1">
                    <mxGeometry x="700" y="260" width="120" height="60" as="geometry"/>
                </mxCell>
                <mxCell id="363" value="&lt;div&gt;return a + b;&lt;/div&gt;&lt;div&gt;}&lt;/div&gt;" style="ellipse;whiteSpace=wrap;html=1;" vertex="1" parent="1">
                    <mxGeometry x="1005" y="260" width="120" height="60" as="geometry"/>
                </mxCell>
            </root>
        </mxGraphModel>
    </diagram>
</mxfile>